<svg width="32" height="32" viewBox="0 0 32 32" fill="none" xmlns="http://www.w3.org/2000/svg">
<g clip-path="url(#clip0_54_17)">
<rect width="32" height="32" rx="11.4495" fill="#FF6900"/>
<path d="M20.5597 14.5644V21.7934C20.5597 21.9702 20.4151 22.1149 20.2382 22.1149H17.6665C17.4897 22.1149 17.345 21.9702 17.345 21.7934V14.5644C17.345 13.6763 16.6257 12.957 15.7377 12.957H9.48113C9.39272 12.957 9.32039 13.0294 9.32039 13.1178V21.7934C9.32039 21.9702 9.17573 22.1149 8.99892 22.1149H6.42718C6.25037 22.1149 6.10571 21.9702 6.10571 21.7934V10.0638C6.10571 9.88703 6.25037 9.74237 6.42718 9.74237H15.7377C18.4019 9.74237 20.5597 11.9002 20.5597 14.5644ZM14.6206 14.5644H12.0489C11.872 14.5644 11.7274 14.709 11.7274 14.8859V21.7934C11.7274 21.9702 11.872 22.1149 12.0489 22.1149H14.6206C14.7974 22.1149 14.9421 21.9702 14.9421 21.7934V14.8859C14.9421 14.709 14.7974 14.5644 14.6206 14.5644ZM25.4259 9.74237H22.8542C22.6774 9.74237 22.5327 9.88703 22.5327 10.0638V21.7934C22.5327 21.9702 22.6774 22.1149 22.8542 22.1149H25.4259C25.6027 22.1149 25.7474 21.9702 25.7474 21.7934V10.0638C25.7474 9.88703 25.6027 9.74237 25.4259 9.74237Z" fill="white"/>
</g>
<defs>
<clipPath id="clip0_54_17">
<rect width="32" height="32" fill="white"/>
</clipPath>
</defs>
</svg>
