<svg width="60" height="68" viewBox="0 0 60 68" fill="none" xmlns="http://www.w3.org/2000/svg">
<g id="Frame 6">
<g id="Vector">
<path d="M35.9354 24.8013C35.9815 24.5988 35.761 24.4362 35.5852 24.5467V24.5467C35.7037 24.6293 35.8204 24.7141 35.9354 24.8013V24.8013ZM31.576 43.9236C31.3823 43.9626 31.1867 43.9963 30.9894 44.0247V44.0247C31.142 44.2675 31.5122 44.2032 31.576 43.9236V43.9236ZM27.8611 22.7374V22.7374C27.764 22.583 27.5278 22.6215 27.4872 22.7992V22.7992C27.6111 22.7765 27.7357 22.7559 27.8611 22.7374ZM23.0955 42.0633V42.0633C23.0375 42.3178 23.3211 42.5122 23.542 42.3733V42.3733C23.3905 42.2737 23.2416 42.1703 23.0955 42.0633Z" fill="#555555"/>
<path d="M18.8214 35.0861C18.6354 35.203 18.6889 35.4876 18.9031 35.5364V35.5364C18.8727 35.3874 18.8455 35.2373 18.8214 35.0861V35.0861ZM23.0955 42.0633V42.0633C23.0375 42.3178 23.3211 42.5122 23.542 42.3733V42.3733C23.3905 42.2737 23.2416 42.1703 23.0955 42.0633ZM40.1069 31.959L40.1132 31.955C40.3233 31.8229 40.2688 31.5028 40.0269 31.4476V31.4476C40.0576 31.6167 40.0842 31.7872 40.1069 31.959ZM35.9354 24.8013V24.8013C35.9815 24.5988 35.761 24.4362 35.5852 24.5467V24.5467C35.7037 24.6293 35.8204 24.7141 35.9354 24.8013Z" fill="#555555"/>
<path d="M20.7432 27.0514C20.5601 27.0097 20.4192 27.212 20.5192 27.3709V27.3709C20.5919 27.263 20.6666 27.1565 20.7432 27.0514V27.0514ZM40.0269 31.4476C40.0576 31.6167 40.0842 31.7872 40.1069 31.959L40.1132 31.955C40.3233 31.8229 40.2688 31.5028 40.0269 31.4476V31.4476ZM38.3468 39.4159C38.237 39.5775 38.123 39.736 38.0048 39.8911V39.8911C38.2792 39.9537 38.4967 39.6542 38.3468 39.4159V39.4159ZM18.8214 35.0861V35.0861C18.6354 35.203 18.6889 35.4876 18.9031 35.5364V35.5364C18.8727 35.3874 18.8455 35.2373 18.8214 35.0861Z" fill="#555555"/>
<path d="M27.8611 22.7374C27.764 22.583 27.5278 22.6215 27.4872 22.7992V22.7992C27.6111 22.7765 27.7357 22.7559 27.8611 22.7374V22.7374ZM20.7432 27.0514V27.0514C20.5601 27.0097 20.4192 27.212 20.5192 27.3709V27.3709C20.5919 27.263 20.6666 27.1565 20.7432 27.0514ZM30.9894 44.0247V44.0247C31.142 44.2675 31.5122 44.2032 31.576 43.9236V43.9236C31.3823 43.9626 31.1867 43.9963 30.9894 44.0247ZM38.0048 39.8911V39.8911C38.2792 39.9537 38.4967 39.6542 38.3468 39.4159V39.4159C38.237 39.5775 38.123 39.736 38.0048 39.8911Z" fill="#555555"/>
<path d="M35.9354 24.8013C35.9815 24.5988 35.761 24.4362 35.5852 24.5467V24.5467C35.7037 24.6293 35.8204 24.7141 35.9354 24.8013V24.8013ZM27.8611 22.7374V22.7374C27.764 22.583 27.5278 22.6215 27.4872 22.7992V22.7992C27.6111 22.7765 27.7357 22.7559 27.8611 22.7374ZM23.0955 42.0633V42.0633C23.0375 42.3178 23.3211 42.5122 23.542 42.3733V42.3733C23.3905 42.2737 23.2416 42.1703 23.0955 42.0633ZM30.9894 44.0247V44.0247C31.142 44.2675 31.5122 44.2032 31.576 43.9236V43.9236C31.3823 43.9626 31.1867 43.9963 30.9894 44.0247Z" fill="#555555"/>
<path d="M18.8214 35.0861C18.6354 35.203 18.6889 35.4876 18.9031 35.5364V35.5364C18.8727 35.3874 18.8455 35.2373 18.8214 35.0861V35.0861ZM35.5852 24.5467C35.7037 24.6293 35.8204 24.7141 35.9354 24.8013V24.8013C35.9815 24.5988 35.761 24.4362 35.5852 24.5467V24.5467ZM23.0955 42.0633V42.0633C23.0375 42.3178 23.3211 42.5122 23.542 42.3733V42.3733C23.3905 42.2737 23.2416 42.1703 23.0955 42.0633ZM40.1069 31.959L40.1132 31.955C40.3233 31.8229 40.2688 31.5028 40.0269 31.4476V31.4476C40.0576 31.6167 40.0842 31.7872 40.1069 31.959Z" fill="#555555"/>
<path d="M20.7432 27.0514C20.5601 27.0097 20.4192 27.212 20.5192 27.3709V27.3709C20.5919 27.263 20.6666 27.1565 20.7432 27.0514V27.0514ZM40.0269 31.4476C40.0576 31.6167 40.0842 31.7872 40.1069 31.959L40.1132 31.955C40.3233 31.8229 40.2688 31.5028 40.0269 31.4476V31.4476ZM38.3468 39.4159C38.237 39.5775 38.123 39.736 38.0048 39.8911V39.8911C38.2792 39.9537 38.4967 39.6542 38.3468 39.4159V39.4159ZM18.8214 35.0861V35.0861C18.6354 35.203 18.6889 35.4876 18.9031 35.5364V35.5364C18.8727 35.3874 18.8455 35.2373 18.8214 35.0861Z" fill="#555555"/>
<path d="M27.8611 22.7374C27.764 22.583 27.5278 22.6215 27.4872 22.7992V22.7992C27.6111 22.7765 27.7357 22.7559 27.8611 22.7374V22.7374ZM38.3468 39.4159C38.237 39.5775 38.123 39.736 38.0048 39.8911V39.8911C38.2792 39.9537 38.4967 39.6542 38.3468 39.4159V39.4159ZM20.7432 27.0514V27.0514C20.5601 27.0097 20.4192 27.212 20.5192 27.3709V27.3709C20.5919 27.263 20.6666 27.1565 20.7432 27.0514ZM30.9894 44.0247V44.0247C31.142 44.2675 31.5122 44.2032 31.576 43.9236V43.9236C31.3823 43.9626 31.1867 43.9963 30.9894 44.0247Z" fill="#555555"/>
<path d="M23.542 42.3733V42.3733C23.3211 42.5122 23.0375 42.3178 23.0955 42.0633V42.0633C23.2416 42.1703 23.3905 42.2737 23.542 42.3733ZM30.9894 44.0247V44.0247C31.142 44.2675 31.5122 44.2032 31.576 43.9236V43.9236C31.3823 43.9626 31.1867 43.9963 30.9894 44.0247ZM38.3468 39.4159C38.4967 39.6542 38.2792 39.9537 38.0048 39.8911V39.8911C38.123 39.736 38.237 39.5775 38.3468 39.4159V39.4159ZM40.0269 31.4476C40.2688 31.5028 40.3233 31.8229 40.1132 31.955L40.1069 31.959C40.0842 31.7872 40.0576 31.6167 40.0269 31.4476V31.4476ZM35.5852 24.5467C35.761 24.4362 35.9815 24.5988 35.9354 24.8013V24.8013C35.8204 24.7141 35.7037 24.6293 35.5852 24.5467V24.5467ZM27.4872 22.7992C27.5278 22.6215 27.764 22.583 27.8611 22.7374V22.7374C27.7357 22.7559 27.6111 22.7765 27.4872 22.7992V22.7992ZM20.5192 27.3709C20.4192 27.212 20.5601 27.0097 20.7432 27.0514V27.0514C20.6666 27.1565 20.5919 27.263 20.5192 27.3709V27.3709ZM18.9031 35.5364C18.6889 35.4876 18.6354 35.203 18.8214 35.0861V35.0861C18.8455 35.2373 18.8727 35.3874 18.9031 35.5364V35.5364Z" fill="#555555"/>
<path d="M31.3227 5.97498C31.4455 5.43652 31.9815 5.09951 32.52 5.22227L39.0346 6.70744C39.5731 6.8302 39.9101 7.36623 39.7873 7.90469L38.8406 12.0575C38.7347 12.5219 38.9722 12.9943 39.3991 13.2054C41.6065 14.2969 43.609 15.74 45.3334 17.4616C45.6732 17.8008 46.2021 17.8719 46.6085 17.6164L50.252 15.3257C50.7195 15.0318 51.3369 15.1725 51.6308 15.6401L55.1872 21.2968C55.4811 21.7643 55.3404 22.3817 54.8729 22.6756L51.182 24.9961C50.7793 25.2493 50.613 25.7503 50.7647 26.2012C51.5231 28.4552 51.9342 30.8688 51.9342 33.3784V33.3784C51.9342 33.8317 52.2403 34.2319 52.6822 34.3327L57.025 35.3227C57.5635 35.4455 57.9005 35.9815 57.7777 36.52L56.2926 43.0346C56.1698 43.5731 55.6338 43.9101 55.0953 43.7873L50.7534 42.7975C50.2894 42.6917 49.8173 42.9287 49.606 43.355C48.5328 45.5197 47.1213 47.487 45.4406 49.1876C45.1045 49.5276 45.0351 50.0542 45.2896 50.4589L47.6743 54.252C47.9682 54.7195 47.8275 55.3369 47.3599 55.6308L41.7032 59.1872C41.2357 59.4811 40.6183 59.3404 40.3244 58.8729L37.939 55.0787C37.6848 54.6743 37.1808 54.5085 36.7288 54.6632C34.4439 55.4451 31.9931 55.8695 29.4431 55.8695V55.8695C29.1006 55.8695 28.7996 56.1021 28.7234 56.4361L27.6773 61.025C27.5545 61.5635 27.0185 61.9005 26.48 61.7777L19.9654 60.2926C19.4269 60.1698 19.0899 59.6338 19.2127 59.0953L20.1979 54.7738C20.3043 54.3067 20.0634 53.8319 19.6325 53.6227C17.4469 52.5615 15.459 51.1569 13.7389 49.4789C13.3985 49.1468 12.875 49.0796 12.4724 49.3327L8.74801 51.6743C8.28046 51.9682 7.66313 51.8275 7.36918 51.3599L3.81281 45.7032C3.51885 45.2357 3.65959 44.6183 4.12715 44.3244L7.79313 42.0196C8.19972 41.764 8.36483 41.2562 8.20635 40.8028C7.39382 38.4785 6.9521 35.98 6.9521 33.3784V33.3784C6.9521 33.0498 6.72865 32.761 6.4082 32.6879L1.97499 31.6773C1.43652 31.5545 1.09951 31.0185 1.22227 30.48L2.70744 23.9654C2.8302 23.4269 3.36623 23.0899 3.9047 23.2127L8.03725 24.1548C8.50475 24.2614 8.97993 24.02 9.18891 23.5884C10.268 21.3599 11.7041 19.3365 13.4229 17.5924C13.7581 17.2523 13.8269 16.7264 13.5728 16.3221L11.3257 12.748C11.0318 12.2805 11.1725 11.6631 11.6401 11.3692L17.2968 7.81281C17.7643 7.51885 18.3817 7.65959 18.6756 8.12715L20.9151 11.6892C21.1696 12.0941 21.6745 12.2597 22.1267 12.1042C24.4204 11.3156 26.8818 10.8874 29.4431 10.8874V10.8874C29.8826 10.8874 30.2705 10.5904 30.3682 10.1619L31.3227 5.97498ZM35.9354 24.8013C35.8204 24.7141 35.7037 24.6293 35.5852 24.5467C33.8438 23.3333 31.7265 22.6219 29.4431 22.6219C28.9057 22.6219 28.3774 22.6613 27.8611 22.7374C27.7357 22.7559 27.6111 22.7765 27.4872 22.7992C24.726 23.3065 22.3337 24.8682 20.7432 27.0514C20.6666 27.1565 20.5919 27.263 20.5192 27.3709C19.3621 29.0864 18.6866 31.1535 18.6866 33.3784C18.6866 33.9596 18.7326 34.53 18.8214 35.0861C18.8455 35.2373 18.8727 35.3874 18.9031 35.5364C19.4463 38.2036 20.9764 40.5119 23.0955 42.0633C23.2416 42.1703 23.3905 42.2737 23.542 42.3733C25.2363 43.4871 27.264 44.135 29.4431 44.135C29.9682 44.135 30.4844 44.0974 30.9894 44.0247C31.1867 43.9963 31.3823 43.9626 31.576 43.9236C34.1839 43.399 36.4506 41.9311 38.0048 39.8911C38.123 39.736 38.237 39.5775 38.3468 39.4159C39.5163 37.6946 40.1997 35.6163 40.1997 33.3784C40.1997 32.8972 40.1681 32.4234 40.1069 31.959C40.0842 31.7872 40.0576 31.6167 40.0269 31.4476C39.5372 28.746 38.0386 26.3957 35.9354 24.8013Z" fill="#555555"/>
</g>
<g id="1000 W">
<path id="Vector_2" d="M25.1823 54L21.0242 39.4678H24.3805L26.786 49.5651H26.9066L29.5604 39.4678H32.4342L35.081 49.5864H35.2087L37.6142 39.4678H40.9705L36.8124 54H33.8179L31.0506 44.4987H30.937L28.1767 54H25.1823Z" fill="#00EAFF"/>
<path id="Vector_3" d="M47.3302 35.3193C46.1097 35.3145 45.0596 35.0141 44.1797 34.4181C43.3045 33.822 42.6304 32.9587 42.1574 31.8281C41.6891 30.6975 41.4573 29.3375 41.462 27.748C41.462 26.1633 41.6961 24.8127 42.1645 23.6963C42.6375 22.5799 43.3116 21.7308 44.1868 21.1489C45.0667 20.5623 46.1145 20.269 47.3302 20.269C48.546 20.269 49.5914 20.5623 50.4666 21.1489C51.3465 21.7355 52.0229 22.587 52.496 23.7034C52.969 24.8151 53.2032 26.1633 53.1985 27.748C53.1985 29.3422 52.9619 30.7046 52.4889 31.8352C52.0206 32.9658 51.3488 33.8291 50.4737 34.4252C49.5985 35.0212 48.5507 35.3193 47.3302 35.3193ZM47.3302 32.7719C48.1628 32.7719 48.8274 32.3532 49.3241 31.5159C49.8209 30.6786 50.0668 29.4226 50.0621 27.748C50.0621 26.6458 49.9486 25.7281 49.7215 24.9949C49.4992 24.2616 49.1822 23.7105 48.7707 23.3415C48.3638 22.9725 47.8837 22.7881 47.3302 22.7881C46.5024 22.7881 45.8401 23.202 45.3434 24.0298C44.8467 24.8577 44.596 26.0971 44.5912 27.748C44.5912 28.8644 44.7024 29.7964 44.9247 30.5438C45.1518 31.2865 45.4711 31.8447 45.8827 32.2184C46.2942 32.5874 46.7767 32.7719 47.3302 32.7719Z" fill="#00EAFF"/>
<path id="Vector_4" d="M33.5731 35.3193C32.3527 35.3145 31.3025 35.0141 30.4226 34.4181C29.5475 33.822 28.8733 32.9587 28.4003 31.8281C27.932 30.6975 27.7002 29.3375 27.7049 27.748C27.7049 26.1633 27.9391 24.8127 28.4074 23.6963C28.8804 22.5799 29.5545 21.7308 30.4297 21.1489C31.3096 20.5623 32.3574 20.269 33.5731 20.269C34.7889 20.269 35.8343 20.5623 36.7095 21.1489C37.5894 21.7355 38.2658 22.587 38.7389 23.7034C39.2119 24.8151 39.4461 26.1633 39.4414 27.748C39.4414 29.3422 39.2049 30.7046 38.7318 31.8352C38.2635 32.9658 37.5917 33.8291 36.7166 34.4252C35.8414 35.0212 34.7936 35.3193 33.5731 35.3193ZM33.5731 32.7719C34.4057 32.7719 35.0704 32.3532 35.5671 31.5159C36.0638 30.6786 36.3098 29.4226 36.305 27.748C36.305 26.6458 36.1915 25.7281 35.9644 24.9949C35.7421 24.2616 35.4251 23.7105 35.0136 23.3415C34.6068 22.9725 34.1266 22.7881 33.5731 22.7881C32.7453 22.7881 32.083 23.202 31.5863 24.0298C31.0896 24.8577 30.8389 26.0971 30.8342 27.748C30.8342 28.8644 30.9453 29.7964 31.1677 30.5438C31.3947 31.2865 31.714 31.8447 32.1256 32.2184C32.5372 32.5874 33.0197 32.7719 33.5731 32.7719Z" fill="#00EAFF"/>
<path id="Vector_5" d="M19.8161 35.3193C18.5956 35.3145 17.5454 35.0141 16.6655 34.4181C15.7904 33.822 15.1163 32.9587 14.6432 31.8281C14.1749 30.6975 13.9431 29.3375 13.9478 27.748C13.9478 26.1633 14.182 24.8127 14.6503 23.6963C15.1234 22.5799 15.7975 21.7308 16.6726 21.1489C17.5525 20.5623 18.6003 20.269 19.8161 20.269C21.0318 20.269 22.0773 20.5623 22.9524 21.1489C23.8323 21.7355 24.5088 22.587 24.9818 23.7034C25.4549 24.8151 25.689 26.1633 25.6843 27.748C25.6843 29.3422 25.4478 30.7046 24.9747 31.8352C24.5064 32.9658 23.8347 33.8291 22.9595 34.4252C22.0844 35.0212 21.0365 35.3193 19.8161 35.3193ZM19.8161 32.7719C20.6486 32.7719 21.3133 32.3532 21.81 31.5159C22.3067 30.6786 22.5527 29.4226 22.5479 27.748C22.5479 26.6458 22.4344 25.7281 22.2073 24.9949C21.985 24.2616 21.6681 23.7105 21.2565 23.3415C20.8497 22.9725 20.3695 22.7881 19.8161 22.7881C18.9882 22.7881 18.3259 23.202 17.8292 24.0298C17.3325 24.8577 17.0818 26.0971 17.0771 27.748C17.0771 28.8644 17.1882 29.7964 17.4106 30.5438C17.6376 31.2865 17.957 31.8447 18.3685 32.2184C18.7801 32.5874 19.2626 32.7719 19.8161 32.7719Z" fill="#00EAFF"/>
<path id="Vector_6" d="M10.6643 20.4678V35H7.5918V23.3842H7.50665L4.17871 25.4703V22.7455L7.77629 20.4678H10.6643Z" fill="#00EAFF"/>
</g>
</g>
</svg>
