<svg width="60" height="68" viewBox="0 0 60 68" fill="none" xmlns="http://www.w3.org/2000/svg">
<g id="Frame 5">
<path id="Union" d="M59.4687 46.1301C60.1437 46.5134 60.1437 47.486 59.4687 47.8692L38.0934 60.0078C37.4268 60.3864 36.5996 59.9049 36.5996 59.1382V54.9997C36.5996 54.4474 36.1519 53.9997 35.5996 53.9997H1C0.447716 53.9997 0 53.5519 0 52.9997V40.9997C0 40.4474 0.447715 39.9997 1 39.9997H35.5996C36.1519 39.9997 36.5996 39.5519 36.5996 38.9997V34.8611C36.5996 34.0945 37.4268 33.6129 38.0934 33.9915L59.4687 46.1301Z" fill="#555555"/>
<g id="60 km">
<path id="Vector" d="M14.8364 35.9999V25.1008H17.7173V27.0237H17.845C18.0721 26.3851 18.4506 25.8813 18.9804 25.5123C19.5102 25.1434 20.1441 24.9589 20.8821 24.9589C21.6295 24.9589 22.2657 25.1457 22.7908 25.5194C23.3159 25.8884 23.666 26.3898 23.841 27.0237H23.9545C24.1769 26.3993 24.579 25.9002 25.1608 25.5265C25.7474 25.1481 26.4404 24.9589 27.2399 24.9589C28.257 24.9589 29.0824 25.2829 29.7163 25.931C30.355 26.5743 30.6743 27.4873 30.6743 28.67V35.9999H27.6586V29.266C27.6586 28.6605 27.4977 28.2064 27.176 27.9036C26.8544 27.6009 26.4523 27.4495 25.9698 27.4495C25.421 27.4495 24.9929 27.6245 24.6854 27.9746C24.3779 28.3199 24.2242 28.7764 24.2242 29.3441V35.9999H21.2936V29.2022C21.2936 28.6676 21.1399 28.2419 20.8324 27.9249C20.5296 27.608 20.1299 27.4495 19.6332 27.4495C19.2973 27.4495 18.9946 27.5346 18.7249 27.7049C18.46 27.8705 18.2495 28.1047 18.0934 28.4074C17.9373 28.7055 17.8592 29.0555 17.8592 29.4576V35.9999H14.8364Z" fill="#00EAFF"/>
<path id="Vector_2" d="M5.94528 32.8636L5.95238 29.2377H6.39232L9.88346 25.1008H13.3533L8.66298 30.5788H7.9463L5.94528 32.8636ZM3.2063 36V21.4678H6.22912V36H3.2063ZM10.0183 36L6.81097 31.2529L8.82618 29.1171L13.5591 36H10.0183Z" fill="#00EAFF"/>
<path id="Vector_3" d="M22.067 17.3193C20.8466 17.3145 19.7964 17.0141 18.9165 16.4181C18.0413 15.822 17.3672 14.9587 16.8942 13.8281C16.4259 12.6975 16.1941 11.3375 16.1988 9.74803C16.1988 8.1633 16.433 6.81273 16.9013 5.69632C17.3743 4.57991 18.0484 3.73078 18.9236 3.14892C19.8035 2.56234 20.8513 2.26904 22.067 2.26904C23.2828 2.26904 24.3282 2.56234 25.2034 3.14892C26.0833 3.73551 26.7597 4.58701 27.2328 5.70342C27.7058 6.81509 27.94 8.1633 27.9353 9.74803C27.9353 11.3422 27.6987 12.7046 27.2257 13.8352C26.7574 14.9658 26.0856 15.8291 25.2105 16.4252C24.3353 17.0212 23.2875 17.3193 22.067 17.3193ZM22.067 14.7719C22.8996 14.7719 23.5643 14.3532 24.061 13.5159C24.5577 12.6786 24.8037 11.4226 24.7989 9.74803C24.7989 8.64581 24.6854 7.72809 24.4583 6.99485C24.236 6.26162 23.919 5.71051 23.5075 5.34153C23.1007 4.97255 22.6205 4.78806 22.067 4.78806C21.2392 4.78806 20.5769 5.20198 20.0802 6.02982C19.5835 6.85767 19.3328 8.09707 19.3281 9.74803C19.3281 10.8644 19.4392 11.7964 19.6616 12.5438C19.8886 13.2865 20.2079 13.8447 20.6195 14.2184C21.031 14.5874 21.5136 14.7719 22.067 14.7719Z" fill="#00EAFF"/>
<path id="Vector_4" d="M8.7553 17.1986C8.00788 17.1939 7.28647 17.0685 6.59108 16.8226C5.90042 16.5766 5.28072 16.1768 4.73198 15.6234C4.18323 15.0699 3.74802 14.3367 3.42635 13.4237C3.1094 12.5107 2.95093 11.3895 2.95093 10.0602C2.95566 8.83977 3.09521 7.74938 3.36958 6.78907C3.64868 5.82404 4.04605 5.00566 4.56168 4.33392C5.08204 3.66219 5.7041 3.15129 6.42788 2.80123C7.15165 2.44644 7.96294 2.26904 8.86174 2.26904C9.8315 2.26904 10.6877 2.45826 11.4304 2.83671C12.1731 3.21042 12.7692 3.71895 13.2186 4.36231C13.6727 5.00566 13.9471 5.72707 14.0417 6.52653H11.0118C10.8935 6.02036 10.6452 5.623 10.2667 5.33443C9.88827 5.04587 9.41994 4.90159 8.86174 4.90159C7.91563 4.90159 7.19659 5.31315 6.70461 6.13626C6.21737 6.95938 5.96901 8.07815 5.95955 9.49258H6.05889C6.2765 9.0621 6.56979 8.69548 6.93877 8.39273C7.31249 8.08524 7.73587 7.85108 8.20892 7.69024C8.68671 7.52467 9.19051 7.44189 9.72033 7.44189C10.5813 7.44189 11.3476 7.6453 12.0194 8.05213C12.6911 8.45423 13.2209 9.0077 13.6088 9.71255C13.9967 10.4174 14.1907 11.224 14.1907 12.1322C14.1907 13.1162 13.9613 13.9913 13.5024 14.7577C13.0483 15.524 12.412 16.1248 11.5936 16.56C10.78 16.9905 9.83386 17.2034 8.7553 17.1986ZM8.74111 14.7861C9.21417 14.7861 9.63755 14.6725 10.0113 14.4455C10.385 14.2184 10.6783 13.9109 10.8911 13.523C11.104 13.1351 11.2105 12.6999 11.2105 12.2174C11.2105 11.7349 11.104 11.302 10.8911 10.9188C10.683 10.5357 10.3944 10.2305 10.0255 10.0035C9.65647 9.77641 9.23545 9.66288 8.7624 9.66288C8.40761 9.66288 8.07883 9.72911 7.77608 9.86156C7.47806 9.99402 7.21551 10.1785 6.98844 10.415C6.76611 10.6516 6.59108 10.9259 6.46335 11.2381C6.33563 11.5456 6.27177 11.8744 6.27177 12.2245C6.27177 12.6928 6.37821 13.1209 6.59108 13.5088C6.80868 13.8967 7.10198 14.2066 7.47096 14.4384C7.84467 14.6702 8.26806 14.7861 8.74111 14.7861Z" fill="#00EAFF"/>
</g>
</g>
</svg>
