<svg width="60" height="68" viewBox="0 0 60 68" fill="none" xmlns="http://www.w3.org/2000/svg">
<g id="Frame 4">
<ellipse id="Ellipse 4" opacity="0.5" cx="30.5" cy="47" rx="21.5" ry="21" fill="#555555"/>
<path id="Vector 1 (Stroke)" d="M19.0644 1.61034C20.7912 1.4101 22.5449 1.49979 23.9189 1.73534L24.4833 1.84472L24.6318 1.88476C25.3543 2.12111 25.7944 2.87116 25.6288 3.62987C25.4632 4.38866 24.7504 4.88711 23.9951 4.80077L23.8437 4.77538L23.3984 4.68944C22.3048 4.5033 20.8429 4.42466 19.4101 4.59081C17.7335 4.78525 16.364 5.28341 15.582 6.0537C14.7166 6.90624 13.9422 8.29793 14.1103 10.2295C14.2672 12.0334 15.2656 14.5063 18.1669 17.5967C20.8294 16.8844 23.4886 16.7208 25.8076 16.9639C27.605 17.1523 29.2606 17.5915 30.5859 18.2598C31.8769 18.9107 33.0552 19.8866 33.5185 21.2559C33.7555 21.9564 33.7773 22.6934 33.5331 23.3935C33.2925 24.0834 32.8323 24.6281 32.287 25.0293C31.2254 25.8104 29.7385 26.1374 28.164 26.0976C25.0828 26.0198 21.1072 24.5415 17.3329 21.0078C16.732 21.2301 16.1354 21.485 15.5507 21.7793L15.2314 21.9443C13.2891 22.9748 11.6183 24.6195 10.5888 26.4639C9.55784 28.3112 9.22965 30.2389 9.73138 31.915L9.80072 32.1279C10.1729 33.196 10.9537 34.3149 12.164 35.5254C12.944 36.3055 13.8704 37.0905 14.916 37.8965C15.786 37.3915 16.5918 36.9597 17.1933 36.6211C19.3836 35.3881 23.8509 33.9347 27.8798 33.6406C29.8895 33.494 31.9811 33.6194 33.6708 34.3545C35.4698 35.1371 36.7988 36.622 36.9931 38.9189C37.0902 40.0672 36.835 41.1118 36.2402 41.9941C35.66 42.8547 34.826 43.4608 33.9218 43.8848C32.147 44.7169 29.8228 44.9786 27.54 44.9424C25.2209 44.9055 22.7716 44.5571 20.6376 44.0361C18.5468 43.5256 16.591 42.8091 15.3661 41.9473C15.1642 41.8051 14.9641 41.6618 14.7656 41.5195C13.6117 42.2997 12.5669 43.1685 11.8261 44.1416C11.039 45.1756 10.6259 46.2795 10.7363 47.5332C10.8493 48.8176 11.5314 50.4808 13.3837 52.5664C17.0358 56.6784 22.8902 59.0912 28.7939 60.0381C34.727 60.9896 40.3246 60.4008 43.3368 58.917C44.0799 58.551 44.9795 58.8567 45.3456 59.5996C45.7117 60.3427 45.406 61.2422 44.663 61.6084C40.8743 63.4747 34.5701 64.0027 28.3183 63C22.037 61.9926 15.4229 59.3802 11.1406 54.5586C9.02579 52.1775 7.93612 49.9323 7.74798 47.7969C7.55725 45.6306 8.31381 43.8028 9.43939 42.3242C10.2386 41.2745 11.239 40.3803 12.2597 39.6201C11.4571 38.9697 10.7104 38.3141 10.0429 37.6465C8.66988 36.2733 7.5454 34.7774 6.96576 33.1103L6.85736 32.7754C6.06362 30.1236 6.6574 27.352 7.96966 25.001C9.28358 22.6471 11.3782 20.5925 13.8261 19.2939L14.2001 19.1006C14.4988 18.9502 14.7999 18.8088 15.1025 18.6748C12.5168 15.6548 11.3329 12.9132 11.122 10.4892C10.8651 7.53526 12.0749 5.29783 13.4765 3.91698C14.9614 2.45411 17.13 1.83469 19.0644 1.61034ZM32.4736 37.1055C31.4359 36.6541 29.9143 36.5003 28.0986 36.6328C24.4764 36.8971 20.442 38.235 18.665 39.2353C18.3369 39.42 17.9885 39.6112 17.6249 39.8115C18.4646 40.2585 19.7554 40.7319 21.3495 41.1211C23.2889 41.5946 25.5149 41.9094 27.5878 41.9424C29.6973 41.9759 31.4832 41.7143 32.6484 41.168C33.2136 40.9029 33.5571 40.606 33.7519 40.3174C33.9319 40.0503 34.0483 39.6985 34.0038 39.1719C33.9148 38.1187 33.4021 37.5094 32.4736 37.1055ZM25.4951 19.9473C24.0756 19.7985 22.4976 19.8326 20.8749 20.0879C23.6752 22.2417 26.3431 23.0506 28.2392 23.0986C29.4274 23.1287 30.1723 22.8615 30.5097 22.6133C30.664 22.4998 30.695 22.4199 30.7001 22.4053C30.7022 22.3997 30.7222 22.3513 30.6767 22.2168C30.5731 21.911 30.1933 21.4216 29.2353 20.9385C28.3113 20.4725 27.0272 20.1079 25.4951 19.9473Z" fill="#00EAFF"/>
</g>
</svg>
