<svg width="60" height="68" viewBox="0 0 60 68" fill="none" xmlns="http://www.w3.org/2000/svg">
<g id="Frame 8" clip-path="url(#clip0_85_417)">
<path id="Union" d="M50.8018 37.2812C51.5744 36.826 52.5692 37.0829 53.0245 37.8555L59.0987 48.1641C61.8663 52.8622 58.4695 58.7872 53.0166 58.7725L36.5987 58.7275L36.6211 62.3516C36.6268 63.2822 35.5335 63.7859 34.8301 63.1767L28.9053 58.042C28.4113 57.6138 28.406 56.8483 28.8946 56.4141L34.7569 51.207C35.4527 50.5894 36.5517 51.0793 36.5577 52.0098L36.5782 55.4795L53.0254 55.5244C55.8698 55.5321 57.6755 52.5388 56.4307 50.0517L56.3008 49.8125L50.2276 39.5039C49.7724 38.7313 50.0293 37.7365 50.8018 37.2812ZM13.003 28.8799C13.6277 28.6616 14.3005 29.0501 14.4239 29.7002L16.0108 38.0693C16.1833 38.9791 15.2083 39.6716 14.4063 39.209L10.9844 37.2324L3.79789 49.2119C2.30178 51.7059 4.05718 54.886 6.96489 54.9492L22.544 55.2881C23.4404 55.3078 24.1514 56.0508 24.1319 56.9473C24.1122 57.8436 23.3691 58.5546 22.4727 58.5351L6.8936 58.1963C1.49372 58.0785 -1.76596 52.1726 1.01274 47.541L8.17094 35.6084L4.77739 33.6494C3.97589 33.1862 4.0879 31.9959 4.96196 31.6904L13.003 28.8799ZM23.5879 8.65624C26.1985 3.88999 32.9967 3.75631 35.793 8.41601L46.459 26.1924L49.6709 24.3389C50.458 23.8845 51.421 24.5433 51.2823 25.4414L50.0108 33.6767C49.9052 34.3605 49.1938 34.7718 48.5489 34.5215L40.7803 31.5049C39.9332 31.1759 39.8439 30.012 40.6309 29.5576L43.6465 27.8164L33.0088 10.0869C31.5031 7.57789 27.8422 7.65029 26.4366 10.2168L18.5196 24.6728C18.0887 25.4592 17.102 25.7471 16.3155 25.3164C15.5293 24.8855 15.2413 23.8987 15.6719 23.1123L23.5879 8.65624Z" fill="#555555"/>
<path id="Vector 5" d="M37.8816 32.8063L29.5873 50.4639C29.451 50.7541 29.0158 50.657 29.0158 50.3364V39.6976C29.0158 39.532 28.8815 39.3976 28.7158 39.3976H21.5354C21.3206 39.3976 21.1754 39.1784 21.2592 38.9806L28.4396 22.0401C28.5671 21.7391 29.0158 21.8303 29.0158 22.1572V32.0788C29.0158 32.2445 29.1501 32.3788 29.3158 32.3788H37.6101C37.8299 32.3788 37.9751 32.6074 37.8816 32.8063Z" fill="#00EAFF"/>
</g>
<defs>
<clipPath id="clip0_85_417">
<rect width="60" height="68" fill="white"/>
</clipPath>
</defs>
</svg>
