<svg width="60" height="68" viewBox="0 0 60 68" fill="none" xmlns="http://www.w3.org/2000/svg">
<g id="Frame 9">
<path id="Subtract" d="M30 1.6355C46.5684 1.6355 59.9998 15.0672 60 31.6355C60 48.204 46.5685 61.6355 30 61.6355C13.4315 61.6355 0 48.204 0 31.6355C0.000236295 15.0672 13.4316 1.6355 30 1.6355ZM30 9.00464C17.5011 9.00464 7.36839 19.1366 7.36816 31.6355C7.36816 44.1346 17.5009 54.2673 30 54.2673C42.4991 54.2673 52.6318 44.1346 52.6318 31.6355C52.6316 19.1366 42.4989 9.00465 30 9.00464Z" fill="#555555"/>
<path id="Union" d="M30 15.0076C38.8366 15.0076 46 22.1481 46 30.9563C46 33.8802 45.2098 36.6196 43.8314 38.9753C42.7316 40.855 42.0525 43.0332 42.5388 45.1545L42.9118 46.7815C43.7265 50.3349 41.4969 53.8737 37.9321 54.6854L32.8605 55.8404C29.2959 56.6521 25.746 54.4298 24.9316 50.8766L24.4815 48.9128C24.0091 46.8519 22.5196 45.2142 20.7867 43.9956C16.6815 41.1087 14 36.345 14 30.9563C14 22.1481 21.1634 15.0076 30 15.0076Z" fill="#00EAFF"/>
<path id="Vector 8" d="M35.6879 44.4509L37.2359 50.8495C37.6477 52.5514 36.5204 54.2428 34.7911 54.5177L34.4452 54.5727C32.9004 54.8183 31.4262 53.8357 31.0583 52.3153L29.3714 45.3427C29.3175 45.12 29.2383 44.9042 29.1353 44.6996L24.3775 35.2448C23.6215 33.7426 24.2479 31.9124 25.7659 31.1885L28.7748 29.7534C29.1154 29.591 29.4836 29.4943 29.8601 29.4683L33.1277 29.2432C34.9385 29.1185 36.4445 30.6179 36.3276 32.4293L35.61 43.5523C35.5905 43.8541 35.6168 44.157 35.6879 44.4509Z" fill="#B7B1B1"/>
<path id="Union_2" d="M41.047 51.2527C41.5927 51.1162 42.1436 51.4565 42.2657 52.0056L43.5479 57.7751C43.9007 59.3625 42.9243 60.9423 41.3468 61.3366L41.086 61.4011C41.3202 62.4587 40.6703 63.5103 39.6192 63.7732L37.0851 64.407C36.0283 64.6711 34.9643 64.0407 34.6759 63.0036L34.338 63.0886C32.7006 63.4979 31.0479 62.4764 30.6817 60.8288L29.4229 55.1628C29.3054 54.6337 29.6305 54.1068 30.1563 53.9753L41.047 51.2527Z" fill="#B7B1B1"/>
</g>
</svg>
