<svg width="60" height="68" viewBox="0 0 60 68" fill="none" xmlns="http://www.w3.org/2000/svg">
<g id="Frame 7" clip-path="url(#clip0_85_416)">
<g id="secFig">
<rect id="Rectangle 19" x="4" y="64" width="52" height="4" fill="#555555"/>
<rect id="Rectangle 20" y="64" width="2" height="4" fill="#555555"/>
<rect id="Rectangle 21" x="58" y="64" width="2" height="4" fill="#555555"/>
<path id="Vector" d="M30 58C43.2548 58 54 47.2548 54 34C54 20.7452 43.2548 10 30 10C16.7452 10 6 20.7452 6 34C6 47.2548 16.7452 58 30 58ZM36.7327 38.6626C36.2796 38.039 36.2648 37.2204 36.5402 36.5004V36.5004C36.7855 35.8593 37.2574 35.2961 37.9103 35.084L46.5497 32.2769C47.7405 31.8899 48.9957 32.6828 48.9999 33.9349C49 33.9566 49 33.9783 49 34C49 38.5134 47.4263 42.6592 44.7977 45.9186C44.0331 46.8667 42.6024 46.7416 41.8865 45.7562L36.7327 38.6626ZM30 41V41C30.5968 41 31.1855 41.2353 31.5363 41.7181L36.9372 49.1519C37.6676 50.1572 37.3138 51.5856 36.1377 51.9868C34.2123 52.6436 32.1478 53 30 53C27.8522 53 25.7877 52.6436 23.8623 51.9868C22.6863 51.5856 22.3324 50.1573 23.0628 49.152L28.4638 41.7181C28.8146 41.2353 29.4032 41 30 41V41ZM18.1135 45.7562C17.3976 46.7416 15.967 46.8668 15.2024 45.9187C12.5737 42.6592 11 38.5134 11 34C11 33.9783 11 33.9566 11.0001 33.9349C11.0043 32.6828 12.2595 31.8899 13.4503 32.2768L22.0897 35.0839C22.7425 35.2961 23.2145 35.8593 23.4598 36.5004V36.5004C23.7352 37.2204 23.7204 38.039 23.2673 38.6626L18.1135 45.7562ZM25.5337 28.6098C24.8981 29.137 24.053 29.4131 23.2676 29.1579L15.0418 26.4852C13.8903 26.111 13.3272 24.8013 13.9792 23.7812C16.4348 19.9393 20.2345 17.0395 24.7152 15.7446C25.8964 15.4033 27 16.3482 27 17.5777V26.4095C27 27.1816 26.5399 27.8649 25.9133 28.3161C25.7834 28.4097 25.6567 28.5077 25.5337 28.6098ZM36.7324 29.1579C35.947 29.4131 35.1019 29.137 34.4663 28.6098C34.3433 28.5077 34.2166 28.4097 34.0867 28.3161C33.4602 27.8649 33 27.1816 33 26.4095V17.5778C33 16.3482 34.1036 15.4033 35.2848 15.7447C39.7656 17.0395 43.5652 19.9394 46.0208 23.7812C46.6728 24.8013 46.1097 26.111 44.9582 26.4852L36.7324 29.1579Z" fill="#555555"/>
</g>
<path id="primFig" d="M30 4C46.5685 4 60 17.4315 60 34C60 50.5685 46.5685 64 30 64C13.4315 64 0 50.5685 0 34C0 17.4315 13.4315 4 30 4ZM30 10C16.7452 10 6 20.7452 6 34C6 47.2548 16.7452 58 30 58C43.2548 58 54 47.2548 54 34C54 20.7452 43.2548 10 30 10Z" fill="#00EAFF"/>
</g>
<defs>
<clipPath id="clip0_85_416">
<rect width="60" height="68" fill="white"/>
</clipPath>
</defs>
</svg>
