<svg width="109" height="110" viewBox="0 0 109 110" fill="none" xmlns="http://www.w3.org/2000/svg">
<circle cx="54.4368" cy="54.9541" r="54.4368" fill="#00EAFF"/>
<path d="M70.3424 39.0485H70.3713M39.9769 26.0347H68.8964C76.8823 26.0347 83.3562 32.5085 83.3562 40.4944V69.414C83.3562 77.3999 76.8823 83.8737 68.8964 83.8737H39.9769C31.9909 83.8737 25.5171 77.3999 25.5171 69.414V40.4944C25.5171 32.5085 31.9909 26.0347 39.9769 26.0347ZM66.0044 53.1323C66.3613 55.5391 65.9502 57.9972 64.8296 60.1569C63.709 62.3166 61.9359 64.0679 59.7625 65.1619C57.5892 66.2558 55.1262 66.6365 52.724 66.25C50.3217 65.8634 48.1026 64.7293 46.3821 63.0088C44.6616 61.2883 43.5274 59.0691 43.1409 56.6669C42.7543 54.2646 43.1351 51.8017 44.229 49.6283C45.3229 47.4549 47.0743 45.6819 49.234 44.5612C51.3937 43.4406 53.8517 43.0295 56.2586 43.3864C58.7136 43.7504 60.9865 44.8944 62.7414 46.6494C64.4964 48.4044 65.6404 50.6772 66.0044 53.1323Z" stroke="black" stroke-width="5.10345" stroke-linecap="round" stroke-linejoin="round"/>
</svg>
